# xmcd
#
# Track frame offsets: 
#        150
#        16658
#        27833
#        42075
#        56220
#        75690
#        91653
#        116650
#        136108
#        154025
#        166875
#
# Disc length: 2561 seconds
#
# Revision: 5
# Processed by: cddbd v1.5.2PL0 Copyright (c) Steve Scherf et al.
# Submitted via: ExactAudioCopy v1.3
#
DISCID=7709ff0b
DTITLE=Emmy Lou Harris - Cowgirl's Prayer
DYEAR=1994
DGENRE=Country
TTITLE0=A Ways To Go
TTITLE1=The Light
TTITLE2=High Powered Love
TTITLE3=You Don't Know Me
TTITLE4=Prayer In Open D
TTITLE5=Crescent City
TTITLE6=Lovin' You Again
TTITLE7=Jerusalem Tomorrow
TTITLE8=Thanks To You
TTITLE9=I Hear A Call
TTITLE10=Ballad Of A Runaway Horse
EXTD=Grapevine\nGRACD 101\nProduced by Allen Reynolds and Richard Bennet
EXTD=t
EXTT0=Background vocals by Suzanne Cox and Alison Krauss
EXTT1=
EXTT2=Harmony vocals by Kathy Chiavola and Ashley Cleveland
EXTT3=Harmony vocals by Lori Brooks, Jana King, Hurshel Wiginton and Den
EXTT3=is Wilson
EXTT4=
EXTT5=Harmony vocals by Kathy Chiavola, Ashley Cleveland and Trisha Year
EXTT5=wood
EXTT6=Harmony vocals by Mary Ann Kennedy and Pam Rose
EXTT7=
EXTT8=Harmony vocals by Kathy Chiavola, Ashley Cleveland and Trisha Year
EXTT8=wood
EXTT9=Harmony vocals by Jon Randall Stewart
EXTT10=Harmony vocals by Kathy Chiavola
PLAYORDER=
